<svg xmlns="http://www.w3.org/2000/svg" viewBox="0 0 512 512">
  <defs>
    <linearGradient id="gold" x1="84" x2="438" y1="82" y2="438" gradientUnits="userSpaceOnUse">
      <stop stop-color="#fff2a6"/>
      <stop offset=".38" stop-color="#facc15"/>
      <stop offset=".72" stop-color="#d97706"/>
      <stop offset="1" stop-color="#78350f"/>
    </linearGradient>
    <linearGradient id="red" x1="116" x2="398" y1="322" y2="372" gradientUnits="userSpaceOnUse">
      <stop stop-color="#7f1d1d"/>
      <stop offset=".5" stop-color="#dc2626"/>
      <stop offset="1" stop-color="#7f1d1d"/>
    </linearGradient>
  </defs>
  <rect width="512" height="512" rx="96" fill="#09090b"/>
  <rect x="26" y="26" width="460" height="460" rx="76" fill="#111827" stroke="#facc15" stroke-width="10"/>
  <circle cx="355" cy="164" r="92" fill="#facc15" opacity=".22"/>
  <path d="M98 341c0-70 51-127 121-127 48 0 89 27 110 67 25-11 55-10 83 4-27 7-49 24-62 48 9 17 14 35 14 55 0 55-45 99-100 99-48 0-88-34-97-80 18 12 39 19 62 19 34 0 64-15 84-39-42 4-83-8-113-34-19-16-34-36-49-59v47H98Z" fill="url(#gold)"/>
  <circle cx="247" cy="269" r="12" fill="#111827"/>
  <path d="M326 264l57-25-35 51-22-26Z" fill="#ef4444"/>
  <path d="M76 324h360l-27 62H103l-27-62Z" fill="url(#red)" stroke="#facc15" stroke-width="5"/>
  <text x="256" y="154" text-anchor="middle" font-family="Arial Black, Impact, sans-serif" font-size="54" fill="#f8fafc" stroke="#111827" stroke-width="5" paint-order="stroke">TROPA</text>
  <text x="256" y="212" text-anchor="middle" font-family="Arial Black, Impact, sans-serif" font-size="64" fill="#facc15" stroke="#111827" stroke-width="7" paint-order="stroke">BELGAS</text>
  <text x="256" y="367" text-anchor="middle" font-family="Arial Black, Impact, sans-serif" font-size="32" fill="#fff7ed">TROPA JF</text>
</svg>
