<svg xmlns="http://www.w3.org/2000/svg" viewBox="0 0 1200 520">
  <defs>
    <linearGradient id="bg" x1="0" x2="1" y1="0" y2="1">
      <stop stop-color="#020617"/>
      <stop offset=".5" stop-color="#111827"/>
      <stop offset="1" stop-color="#09090b"/>
    </linearGradient>
    <linearGradient id="gold" x1="180" x2="900" y1="70" y2="430" gradientUnits="userSpaceOnUse">
      <stop stop-color="#fff7ad"/>
      <stop offset=".28" stop-color="#facc15"/>
      <stop offset=".62" stop-color="#d97706"/>
      <stop offset="1" stop-color="#78350f"/>
    </linearGradient>
    <linearGradient id="red" x1="340" x2="860" y1="300" y2="355" gradientUnits="userSpaceOnUse">
      <stop stop-color="#7f1d1d"/>
      <stop offset=".5" stop-color="#dc2626"/>
      <stop offset="1" stop-color="#7f1d1d"/>
    </linearGradient>
    <filter id="shadow" x="-10%" y="-20%" width="120%" height="140%">
      <feDropShadow dx="0" dy="18" stdDeviation="12" flood-color="#000000" flood-opacity=".65"/>
    </filter>
  </defs>
  <rect width="1200" height="520" rx="34" fill="url(#bg)"/>
  <path d="M0 70c150 16 256-48 420-38 203 13 318 107 515 73 92-16 161-51 265-34v449H0V70Z" fill="#f59e0b" opacity=".12"/>
  <path d="M835 76c93 0 169 75 169 168 0 92-76 168-169 168-92 0-168-76-168-168 0-93 76-168 168-168Z" fill="#facc15" opacity=".2"/>
  <g filter="url(#shadow)">
    <path d="M170 384h860l-82 96H252l-82-96Z" fill="#111827" stroke="#facc15" stroke-width="9"/>
    <path d="M222 112h756l70 73-46 180H198l-46-180 70-73Z" fill="#050505" stroke="#facc15" stroke-width="10"/>
    <text x="600" y="205" text-anchor="middle" font-family="Arial Black, Impact, sans-serif" font-size="104" fill="#f8fafc" stroke="#111827" stroke-width="10" paint-order="stroke">TROPA</text>
    <text x="600" y="308" text-anchor="middle" font-family="Arial Black, Impact, sans-serif" font-size="125" fill="url(#gold)" stroke="#111827" stroke-width="12" paint-order="stroke">BELGAS</text>
    <path d="M345 324h510l-38 63H383l-38-63Z" fill="url(#red)" stroke="#facc15" stroke-width="5"/>
    <text x="600" y="367" text-anchor="middle" font-family="Arial Black, Impact, sans-serif" font-size="46" fill="#ffffff">DESDE 2018</text>
    <text x="600" y="445" text-anchor="middle" font-family="Arial Black, Impact, sans-serif" font-size="52" fill="#facc15">TROPA JF</text>
  </g>
  <g>
    <path d="M75 396c0-87 62-158 149-158 60 0 111 34 137 83 31-14 68-13 103 5-34 9-61 30-77 59 10 20 16 43 16 67 0 68-56 124-124 124-59 0-109-42-121-99 22 15 49 24 78 24 42 0 80-19 104-49-53 5-104-10-142-42-23-20-43-45-61-73v59H75Z" fill="url(#gold)" stroke="#78350f" stroke-width="5"/>
    <circle cx="258" cy="305" r="14" fill="#111827"/>
    <path d="M358 298l74-32-46 64-28-32Z" fill="#ef4444" stroke="#450a0a" stroke-width="4"/>
    <path d="M60 464h190l-46 38H89l-29-38Z" fill="#7c2d12"/>
  </g>
</svg>
